<?xml version="1.0" encoding="iso-8859-1"?>
<!-- Generator: Adobe Illustrator 16.0.0, SVG Export Plug-In . SVG Version: 6.00 Build 0)  -->
<!DOCTYPE svg PUBLIC "-//W3C//DTD SVG 1.1//EN" "http://www.w3.org/Graphics/SVG/1.1/DTD/svg11.dtd">
<svg version="1.1" id="Capa_1" xmlns="http://www.w3.org/2000/svg" xmlns:xlink="http://www.w3.org/1999/xlink" x="0px" y="0px"
	 width="52.148px" height="52.148px" viewBox="0 0 52.148 52.148" style="enable-background:new 0 0 52.148 52.148;"
	 xml:space="preserve">
<g>
	<path d="M45.11,7.039C35.269-2.802,18.769-2.257,8.256,8.256C-2.257,18.769-2.801,35.268,7.039,45.11
		c9.84,9.84,26.341,9.295,36.854-1.218C54.406,33.379,54.951,16.88,45.11,7.039z M30.031,22.685l-4.374,16.228
		c-0.568,2.145-1.968,3.369-3.718,3.369c-2.231,0-3.412-1.621-2.668-4.375l4.374-16.229c0.568-2.144,1.968-3.366,3.718-3.366
		C29.593,18.311,30.775,19.928,30.031,22.685z M33.049,12.93l-0.047,0.217c-0.393,1.881-2.186,3.063-4.284,3.063
		c-2.101,0-3.542-1.311-3.194-3.063l0.045-0.217c0.394-1.881,2.188-3.063,4.286-3.063C31.956,9.867,33.398,11.181,33.049,12.93z"/>
</g>
<g>
</g>
<g>
</g>
<g>
</g>
<g>
</g>
<g>
</g>
<g>
</g>
<g>
</g>
<g>
</g>
<g>
</g>
<g>
</g>
<g>
</g>
<g>
</g>
<g>
</g>
<g>
</g>
<g>
</g>
</svg>
