<?xml version="1.0" encoding="iso-8859-1"?>
<!-- Generator: Adobe Illustrator 18.1.1, SVG Export Plug-In . SVG Version: 6.00 Build 0)  -->
<svg version="1.1" id="Capa_1" xmlns="http://www.w3.org/2000/svg" xmlns:xlink="http://www.w3.org/1999/xlink" x="0px" y="0px"
	 viewBox="0 0 37.727 37.727" style="enable-background:new 0 0 37.727 37.727;" xml:space="preserve">
<g>
	<path style="fill:#010002;" d="M36.645,29.056L25.84,20.182c2.769-5.191,1.969-11.785-2.406-16.162C20.753,1.34,17.241,0,13.727,0
		S6.701,1.34,4.021,4.02c-5.36,5.36-5.36,14.051,0,19.412c2.68,2.681,6.193,4.021,9.706,4.021c2.223,0,4.444-0.54,6.456-1.613
		l8.875,10.805c1.27,1.547,3.681,1.42,5.385-0.283l1.918-1.918C38.065,32.739,38.192,30.328,36.645,29.056z M13.728,20.442
		c-1.794,0-3.481-0.698-4.75-1.966c-1.269-1.269-1.967-2.955-1.967-4.75c0-1.794,0.699-3.481,1.967-4.75
		c1.269-1.268,2.956-1.967,4.75-1.967s3.481,0.699,4.75,1.967c1.269,1.269,1.967,2.955,1.967,4.75c0,1.794-0.699,3.481-1.967,4.75
		C17.209,19.745,15.523,20.442,13.728,20.442z"/>
</g>
<g>
</g>
<g>
</g>
<g>
</g>
<g>
</g>
<g>
</g>
<g>
</g>
<g>
</g>
<g>
</g>
<g>
</g>
<g>
</g>
<g>
</g>
<g>
</g>
<g>
</g>
<g>
</g>
<g>
</g>
</svg>
